<svg width="25" height="24" viewBox="0 0 25 24" fill="none" xmlns="http://www.w3.org/2000/svg">
<g clip-path="url(#clip0_7_106)">
<g clip-path="url(#clip1_7_106)">
<path d="M17.5 10.5V7C17.5 6.45 17.05 6 16.5 6H4.5C3.95 6 3.5 6.45 3.5 7V17C3.5 17.55 3.95 18 4.5 18H16.5C17.05 18 17.5 17.55 17.5 17V13.5L21.5 17.5V6.5L17.5 10.5Z" fill="#666666"/>
</g>
<g clip-path="url(#clip2_7_106)">
<path d="M17.5 10.5V7C17.5 6.45 17.05 6 16.5 6H4.5C3.95 6 3.5 6.45 3.5 7V17C3.5 17.55 3.95 18 4.5 18H16.5C17.05 18 17.5 17.55 17.5 17V13.5L21.5 17.5V6.5L17.5 10.5Z" fill="black"/>
</g>
</g>
<defs>
<clipPath id="clip0_7_106">
<rect width="24" height="24" fill="white" transform="translate(0.5)"/>
</clipPath>
<clipPath id="clip1_7_106">
<rect width="24" height="24" fill="white" transform="translate(0.5)"/>
</clipPath>
<clipPath id="clip2_7_106">
<rect width="24" height="24" fill="white" transform="translate(0.5)"/>
</clipPath>
</defs>
</svg>
