<svg width="10" height="13" viewBox="0 0 10 13" fill="none" xmlns="http://www.w3.org/2000/svg">
<path d="M8.33333 8.83534C7.91111 8.83534 7.53333 9.02359 7.24445 9.31852L3.28333 6.71436C3.31111 6.57003 3.33333 6.4257 3.33333 6.2751C3.33333 6.1245 3.31111 5.98017 3.28333 5.83584L7.2 3.25678C7.5 3.57053 7.89444 3.76506 8.33333 3.76506C9.25556 3.76506 10 2.9242 10 1.88253C10 0.840863 9.25556 0 8.33333 0C7.41111 0 6.66667 0.840863 6.66667 1.88253C6.66667 2.03313 6.68889 2.17746 6.71667 2.32179L2.8 4.90085C2.5 4.5871 2.10556 4.39257 1.66667 4.39257C0.744444 4.39257 0 5.23343 0 6.2751C0 7.31677 0.744444 8.15763 1.66667 8.15763C2.10556 8.15763 2.5 7.9631 2.8 7.64935L6.75556 10.2598C6.72778 10.3916 6.71111 10.5296 6.71111 10.6677C6.71111 11.678 7.43889 12.5 8.33333 12.5C9.22778 12.5 9.95556 11.678 9.95556 10.6677C9.95556 9.65738 9.22778 8.83534 8.33333 8.83534Z" fill="#B8B8B8"/>
</svg>
